HIERARCHY
ROOT Hips
{
	OFFSET -0.001795 -0.223333 0.028219
	CHANNELS 6 Xposition Yposition Zposition Zrotation Yrotation Xrotation 
	JOINT LeftUpLeg
	{
		OFFSET 0.069520 -0.091406 -0.006815
		CHANNELS 3 Zrotation Yrotation Xrotation
		JOINT LeftLeg
		{
			OFFSET 0.034277 -0.375199 -0.004496
			CHANNELS 3 Zrotation Yrotation Xrotation
			JOINT LeftFoot
			{
				OFFSET -0.013596 -0.397961 -0.043693
				CHANNELS 3 Zrotation Yrotation Xrotation
				JOINT LeftToe
				{
					OFFSET 0.026358 -0.055791 0.119288
					CHANNELS 3 Zrotation Yrotation Xrotation
					End Site
					{
						OFFSET 0.000000 0.000000 0.000000
					}
				}
			}
		}
	}
	JOINT RightUpLeg
	{
		OFFSET -0.067670 -0.090522 -0.004320
		CHANNELS 3 Zrotation Yrotation Xrotation
		JOINT RightLeg
		{
			OFFSET -0.038290 -0.382569 -0.008850
			CHANNELS 3 Zrotation Yrotation Xrotation
			JOINT RightFoot
			{
				OFFSET 0.015774 -0.398415 -0.042312
				CHANNELS 3 Zrotation Yrotation Xrotation
				JOINT RightToe
				{
					OFFSET -0.025372 -0.048144 0.123348
					CHANNELS 3 Zrotation Yrotation Xrotation
					End Site
					{
						OFFSET 0.000000 0.000000 0.000000
					}
				}
			}
		}
	}
	JOINT Spine
	{
		OFFSET -0.002533 0.108963 -0.026696
		CHANNELS 3 Zrotation Yrotation Xrotation
		JOINT Spine1
		{
			OFFSET 0.005487 0.135180 0.001092
			CHANNELS 3 Zrotation Yrotation Xrotation
			JOINT Spine2
			{
				OFFSET 0.001457 0.052922 0.025425
				CHANNELS 3 Zrotation Yrotation Xrotation
				JOINT Neck
				{
					OFFSET -0.002778 0.213870 -0.042857
					CHANNELS 3 Zrotation Yrotation Xrotation
					JOINT Head
					{
						OFFSET 0.005152 0.064970 0.051349
						CHANNELS 3 Zrotation Yrotation Xrotation
						End Site
						{
							OFFSET 0.000000 0.000000 0.000000
						}
					}
				}
				JOINT LeftShoulder
				{
					OFFSET 0.078845 0.121749 -0.034090
					CHANNELS 3 Zrotation Yrotation Xrotation
					JOINT LeftArm
					{
						OFFSET 0.090977 0.030469 -0.008868
						CHANNELS 3 Zrotation Yrotation Xrotation
						JOINT LeftForeArm
						{
							OFFSET 0.259612 -0.012772 -0.027456
							CHANNELS 3 Zrotation Yrotation Xrotation
							JOINT LeftHand
							{
								OFFSET 0.249234 0.008986 -0.001171
								CHANNELS 3 Zrotation Yrotation Xrotation
								End Site
								{
									OFFSET 0.000000 0.000000 0.000000
								}
							}
						}
					}
				}
				JOINT RightShoulder
				{
					OFFSET -0.081759 0.118833 -0.038615
					CHANNELS 3 Zrotation Yrotation Xrotation
					JOINT RightArm
					{
						OFFSET -0.096012 0.032551 -0.009143
						CHANNELS 3 Zrotation Yrotation Xrotation
						JOINT RightForeArm
						{
							OFFSET -0.253742 -0.013329 -0.021401
							CHANNELS 3 Zrotation Yrotation Xrotation
							JOINT RightHand
							{
								OFFSET -0.255298 0.007772 -0.005559
								CHANNELS 3 Zrotation Yrotation Xrotation
								End Site
								{
									OFFSET 0.000000 0.000000 0.000000
								}
							}
						}
					}
				}
			}
		}
	}
}
MOTION
Frames: 14
Frame Time: 0.050000
0.824871 0.833598 0.246365 -176.717473 12.806505 176.070086 10.247359 -19.084290 -36.299813 -98.816859 -27.085771 65.605723 60.249686 -3.016939 106.297169 0.000000 0.000000 0.000000 25.069238 -24.195860 -45.675499 -73.950036 -22.345119 50.082746 100.539508 -16.621469 48.133993 0.000000 0.000000 0.000000 -6.676910 -18.726341 35.457454 -0.215002 -0.170704 -31.855312 8.157102 35.280472 29.164486 8.637135 2.322502 -47.018768 0.000000 0.000000 0.000000 24.975101 7.952578 -164.469004 79.340520 7.125993 15.628819 -50.438183 35.862241 -29.189130 0.000000 0.000000 0.000000 15.854219 -37.350741 84.345991 -5.163422 65.320390 -12.389932 -47.501522 1.241512 2.559897 0.000000 0.000000 0.000000 
0.822034 0.835085 0.269771 -177.086092 17.781932 176.332381 10.591596 -18.664190 -36.528956 -94.116360 -27.135351 62.313214 66.075432 3.749621 101.376379 0.000000 0.000000 0.000000 24.944509 -22.710452 -45.079614 -64.887702 -20.134321 46.475841 93.593856 -1.955191 45.077361 0.000000 0.000000 0.000000 -6.648807 -18.568363 35.919233 -0.797587 -0.485195 -32.121973 8.720088 36.948566 29.705965 8.712669 3.144282 -46.395140 0.000000 0.000000 0.000000 22.865365 -3.405425 -132.301037 71.061732 34.982344 30.645867 -60.061155 8.831788 -17.732940 0.000000 0.000000 0.000000 20.544733 -36.339380 65.740490 21.930419 57.335316 3.355409 -47.097882 14.100640 -1.784560 0.000000 0.000000 0.000000 
0.819867 0.834919 0.293759 -176.970540 22.070885 176.013237 11.416406 -18.255654 -36.722700 -91.780648 -26.490842 60.216292 70.339051 11.599860 97.407506 0.000000 0.000000 0.000000 24.895486 -21.187582 -44.409978 -61.567761 -18.966760 46.964260 87.205260 9.081014 44.095973 0.000000 0.000000 0.000000 -8.613247 -19.126400 37.593941 0.089443 0.144592 -31.606048 7.930492 37.144642 28.905084 10.085554 5.526693 -46.878084 0.000000 0.000000 0.000000 15.151209 -9.106443 -100.445330 41.856262 56.330926 24.001797 -57.998799 -19.376612 -0.981650 0.000000 0.000000 0.000000 23.792833 -32.827910 50.831936 31.664149 46.381798 4.430299 -43.891263 24.914999 -5.556445 0.000000 0.000000 0.000000 
0.818456 0.834684 0.318818 -177.194529 26.530250 175.488801 10.671289 -17.171623 -36.052913 -88.044875 -25.196114 59.090092 73.615938 16.705439 94.648554 0.000000 0.000000 0.000000 23.110683 -19.500784 -42.503711 -54.878592 -17.737732 45.862259 78.338056 21.030989 36.744600 0.000000 0.000000 0.000000 -9.193867 -19.193307 38.459874 -0.241790 -0.131842 -32.183835 8.720197 37.698775 30.910558 11.659986 6.375204 -45.163680 0.000000 0.000000 0.000000 9.058606 -11.855439 -81.754614 9.263176 58.484229 4.511347 -51.122344 -35.771487 6.447484 0.000000 0.000000 0.000000 24.892079 -31.874652 41.403050 36.517934 38.821691 4.423012 -41.786905 32.796736 -7.090257 0.000000 0.000000 0.000000 
0.817265 0.835487 0.344072 -177.466143 31.016999 175.421820 12.855910 -17.001124 -36.441748 -83.990255 -25.124621 55.013832 73.608273 19.352536 92.682111 0.000000 0.000000 0.000000 22.353630 -18.381436 -41.869283 -51.991536 -16.587331 45.688926 76.169456 22.967317 36.725157 0.000000 0.000000 0.000000 -10.464035 -18.422674 38.806106 -0.060859 0.418022 -31.196149 6.832397 36.010400 29.611977 12.926056 7.662176 -45.635890 0.000000 0.000000 0.000000 2.588870 -11.248162 -63.360459 -15.669396 49.362997 -8.970433 -35.937281 -47.316576 6.332235 0.000000 0.000000 0.000000 26.298171 -29.733512 33.052804 38.280321 30.714873 1.523863 -37.218278 40.010598 -8.010401 0.000000 0.000000 0.000000 
0.815814 0.837548 0.368293 -177.463458 37.051391 175.075924 14.602914 -15.936828 -35.719997 -80.026999 -23.519975 52.335390 75.518561 26.683260 87.201148 0.000000 0.000000 0.000000 21.140945 -16.045427 -39.864869 -50.213068 -15.621206 46.076671 69.261870 30.806990 31.738435 0.000000 0.000000 0.000000 -9.534076 -16.837971 37.596267 -0.888429 0.221321 -31.459766 6.344152 34.031640 31.819366 14.075874 8.452512 -44.705776 0.000000 0.000000 0.000000 -0.770897 -9.671274 -53.252424 -24.264678 41.156583 -11.263375 -23.028354 -52.179742 1.892247 0.000000 0.000000 0.000000 26.451144 -28.556060 27.587740 39.552008 24.772339 0.064235 -33.372642 44.940065 -7.307378 0.000000 0.000000 0.000000 
0.813962 0.840220 0.390277 -177.116937 42.530385 175.326305 15.522636 -14.770665 -34.706660 -72.990645 -21.546200 49.858500 74.701836 29.628387 82.112353 0.000000 0.000000 0.000000 18.094869 -14.162576 -37.160309 -52.400460 -15.311964 49.548300 60.863062 40.751993 22.316977 0.000000 0.000000 0.000000 -8.406458 -15.081864 36.182640 -1.559743 0.817635 -29.729737 4.130781 31.846164 30.859192 14.943727 8.675542 -44.689799 0.000000 0.000000 0.000000 -2.425552 -9.148759 -41.705707 -29.942603 34.085559 -12.217660 -8.795019 -52.529935 -5.199271 0.000000 0.000000 0.000000 27.467732 -27.702117 22.071468 38.315901 16.991851 -2.894204 -27.195822 47.696480 -5.439172 0.000000 0.000000 0.000000 
0.811529 0.840146 0.409691 -177.068016 47.616009 175.570952 17.510621 -14.228509 -34.283342 -69.622005 -20.481620 46.462005 75.043734 33.545007 78.542462 0.000000 0.000000 0.000000 15.571825 -13.446704 -36.071460 -67.797441 -13.630118 57.952995 66.573282 51.440496 28.915032 0.000000 0.000000 0.000000 -7.798847 -13.428737 34.535033 -2.601738 0.766111 -29.177938 4.165341 28.976987 31.307743 14.088254 9.033493 -44.092198 0.000000 0.000000 0.000000 -3.729450 -6.122037 -37.621521 -31.783431 30.524731 -11.938949 -3.507945 -53.502694 -7.528849 0.000000 0.000000 0.000000 26.381546 -27.859189 16.368038 37.169991 11.088600 -3.810852 -19.985385 49.991016 -1.782309 0.000000 0.000000 0.000000 
0.807902 0.835974 0.427550 -177.967767 52.006151 175.625980 17.684681 -13.803955 -34.396131 -62.990494 -18.598333 44.784851 72.181343 36.077765 72.650729 0.000000 0.000000 0.000000 11.601510 -12.566975 -33.518583 -81.291676 -10.790704 63.415811 72.167845 58.317107 36.075273 0.000000 0.000000 0.000000 -6.837985 -11.910861 32.877049 -2.837234 0.643657 -29.976474 2.395783 27.728918 31.533091 16.533817 8.664078 -43.278856 0.000000 0.000000 0.000000 -3.974823 -4.549644 -33.793237 -32.657863 28.205191 -11.859064 2.487445 -52.005213 -10.431824 0.000000 0.000000 0.000000 28.986427 -29.092071 14.484216 33.732868 9.132595 -5.433584 -17.244197 49.358738 -0.969855 0.000000 0.000000 0.000000 
0.802970 0.831940 0.444354 -178.792079 55.352345 175.911603 17.391828 -13.772671 -35.109917 -58.717988 -17.397056 43.473609 70.922683 39.985031 67.142180 0.000000 0.000000 0.000000 7.867991 -11.267596 -29.975564 -86.733033 -9.232671 66.103925 72.151509 58.933379 39.200546 0.000000 0.000000 0.000000 -5.627448 -11.016105 31.746045 -4.598079 0.088202 -30.492407 2.372742 26.438048 31.787759 17.611018 8.485072 -42.338908 0.000000 0.000000 0.000000 -4.519313 -4.306460 -31.470894 -33.080353 27.323145 -11.713523 11.219474 -50.814228 -14.369452 0.000000 0.000000 0.000000 31.673126 -29.614434 14.410504 31.566813 9.652443 -6.505913 -19.555005 45.742480 -2.226737 0.000000 0.000000 0.000000 
0.795867 0.829903 0.460689 179.865134 57.216436 175.378548 16.547408 -13.794814 -35.656323 -54.450065 -16.417934 43.480636 66.062575 43.084803 58.207600 0.000000 0.000000 0.000000 3.577318 -10.110550 -25.292580 -75.222332 -11.643193 66.349364 63.438591 58.040045 26.777981 0.000000 0.000000 0.000000 -5.950833 -10.908882 31.899348 -3.865845 -0.482116 -32.870209 2.937533 26.206407 34.100481 16.899276 8.883530 -41.941652 0.000000 0.000000 0.000000 -5.713421 -2.894263 -33.004607 -32.480528 26.493323 -10.885593 9.890582 -49.230531 -12.781083 0.000000 0.000000 0.000000 32.692053 -30.533696 13.792554 31.687294 11.216555 -6.603522 -20.817289 43.290821 -2.204443 0.000000 0.000000 0.000000 
0.786004 0.830389 0.475584 -179.363774 61.200105 176.019901 17.332736 -13.557239 -36.004363 -52.014589 -14.937039 43.352782 61.116239 44.395328 53.717455 0.000000 0.000000 0.000000 3.473997 -8.168152 -23.488649 -66.606699 -12.613656 64.582662 52.641600 55.712318 15.775501 0.000000 0.000000 0.000000 -5.963666 -11.029403 32.473983 -2.981251 -0.359692 -33.434474 2.868007 28.126612 33.987461 16.663647 8.816377 -41.861343 0.000000 0.000000 0.000000 -5.660846 -1.701191 -30.428758 -35.665585 24.018503 -11.809027 13.359266 -46.990607 -14.131038 0.000000 0.000000 0.000000 32.406957 -29.462850 13.132948 33.892320 10.207976 -6.663341 -21.782617 41.559792 -2.250852 0.000000 0.000000 0.000000 
0.773928 0.836084 0.487020 -177.943893 64.112039 176.830644 18.520257 -13.544494 -36.623833 -51.464611 -13.709366 44.302855 57.021851 44.893533 51.599694 0.000000 0.000000 0.000000 4.015510 -7.779445 -24.229572 -60.261275 -12.638758 62.912792 46.603899 52.017203 11.563587 0.000000 0.000000 0.000000 -6.748288 -11.250462 33.423845 -1.626184 -0.032958 -33.563308 4.078978 28.318381 35.341601 13.838273 9.558749 -43.869900 0.000000 0.000000 0.000000 -8.161138 0.458799 -32.332376 -37.669964 23.082054 -11.672651 11.700403 -47.038378 -12.684499 0.000000 0.000000 0.000000 30.355517 -28.395191 11.157613 36.860284 10.852920 -5.622410 -21.214131 40.738941 -1.340450 0.000000 0.000000 0.000000 
0.761739 0.842568 0.494010 -176.921781 66.707574 178.117816 20.332636 -14.083248 -38.213408 -55.816121 -12.945091 44.174219 59.321288 47.653549 54.591514 0.000000 0.000000 0.000000 4.655288 -8.178287 -26.313584 -55.583033 -11.795234 59.680172 52.559871 50.068748 19.165712 0.000000 0.000000 0.000000 -6.133695 -10.639545 32.591541 -1.773488 0.609492 -31.776102 3.394728 27.928437 34.292091 13.386072 9.430070 -43.348469 0.000000 0.000000 0.000000 -9.061297 0.297883 -31.422649 -39.016028 21.756399 -11.415101 11.877945 -48.835245 -13.258907 0.000000 0.000000 0.000000 28.298336 -27.607441 9.198310 39.757728 9.179239 -5.037967 -19.314912 39.955445 -0.199643 0.000000 0.000000 0.000000 
